<svg height="512pt" viewBox="-66 0 512 512" width="512pt" xmlns="http://www.w3.org/2000/svg"><path d="m53.5 24.5c-12.40625 0-22.5 10.09375-22.5 22.5s10.09375 22.5 22.5 22.5 22.5-10.09375 22.5-22.5-10.09375-22.5-22.5-22.5zm0 30c-4.136719 0-7.5-3.363281-7.5-7.5s3.363281-7.5 7.5-7.5 7.5 3.363281 7.5 7.5-3.363281 7.5-7.5 7.5zm0 0"/><path d="m113.5 69.5c12.40625 0 22.5-10.09375 22.5-22.5s-10.09375-22.5-22.5-22.5-22.5 10.09375-22.5 22.5 10.09375 22.5 22.5 22.5zm0-30c4.136719 0 7.5 3.363281 7.5 7.5s-3.363281 7.5-7.5 7.5-7.5-3.363281-7.5-7.5 3.363281-7.5 7.5-7.5zm0 0"/><path d="m196 47c0-12.40625-10.09375-22.5-22.5-22.5s-22.5 10.09375-22.5 22.5 10.09375 22.5 22.5 22.5 22.5-10.09375 22.5-22.5zm-30 0c0-4.136719 3.363281-7.5 7.5-7.5s7.5 3.363281 7.5 7.5-3.363281 7.5-7.5 7.5-7.5-3.363281-7.5-7.5zm0 0"/><path d="m371.5 128.5c-4.144531 0-7.5 3.359375-7.5 7.5v361h-349v-17.25c0-4.140625-3.355469-7.5-7.5-7.5s-7.5 3.359375-7.5 7.5v24.75c0 4.140625 3.355469 7.5 7.5 7.5h364c4.144531 0 7.5-3.359375 7.5-7.5v-368.5c0-4.140625-3.355469-7.5-7.5-7.5zm0 0"/><path d="m371.5 0h-364c-4.144531 0-7.5 3.359375-7.5 7.5v440c0 4.140625 3.355469 7.5 7.5 7.5s7.5-3.359375 7.5-7.5v-352.5h46.5c4.144531 0 7.5-3.359375 7.5-7.5s-3.355469-7.5-7.5-7.5h-46.5v-65h349v65h-270.4375c-4.140625 0-7.5 3.359375-7.5 7.5s3.359375 7.5 7.5 7.5h270.4375v8.75c0 4.140625 3.355469 7.5 7.5 7.5s7.5-3.359375 7.5-7.5v-96.25c0-4.140625-3.355469-7.5-7.5-7.5zm0 0"/><path d="m46.144531 170.320312c-1.5625 4.839844-.257812 10.042969 3.40625 13.582032l12.046875 11.644531-2.84375 16.421875c-.863281 4.992188 1.148438 9.953125 5.246094 12.945312 4.128906 3.015626 9.511719 3.421876 14.046875 1.058594l14.953125-7.792968 14.953125 7.792968c1.960937 1.019532 4.078125 1.523438 6.183594 1.523438 2.769531 0 5.515625-.867188 7.859375-2.582032 4.101562-2.992187 6.109375-7.953124 5.246094-12.945312l-2.839844-16.421875 12.046875-11.644531c3.664062-3.539063 4.964843-8.746094 3.402343-13.582032-1.570312-4.859374-5.695312-8.332031-10.765624-9.0625l-16.703126-2.40625-7.457031-14.980468c-2.265625-4.546875-6.832031-7.371094-11.925781-7.371094s-9.664062 2.824219-11.925781 7.367188l-7.460938 14.984374-16.699219 2.40625c-5.070312.730469-9.195312 4.203126-10.769531 9.0625zm30.476563 3.253907c4.332031-.625 8.078125-3.328125 10.023437-7.234375l6.355469-12.769532 6.355469 12.769532c1.941406 3.90625 5.691406 6.609375 10.019531 7.234375l14.078125 2.027343-10.144531 9.804688c-3.15625 3.050781-4.59375 7.453125-3.847656 11.769531l2.40625 13.925781-12.699219-6.621093c-3.863281-2.015625-8.476563-2.015625-12.34375 0l-12.699219 6.621093 2.410156-13.925781c.746094-4.316406-.691406-8.71875-3.851562-11.769531l-10.144532-9.804688zm0 0"/><path d="m332.855469 170.320312c-1.570313-4.859374-5.699219-8.332031-10.769531-9.0625l-16.699219-2.40625-7.460938-14.980468c-2.261719-4.546875-6.832031-7.371094-11.925781-7.371094s-9.664062 2.824219-11.925781 7.371094l-7.460938 14.980468-16.699219 2.40625c-5.070312.730469-9.195312 4.203126-10.769531 9.0625-1.5625 4.839844-.257812 10.042969 3.40625 13.582032l12.046875 11.644531-2.84375 16.421875c-.863281 4.992188 1.148438 9.953125 5.246094 12.945312 4.128906 3.015626 9.511719 3.421876 14.046875 1.058594l14.953125-7.792968 14.953125 7.792968c1.960937 1.019532 4.078125 1.523438 6.183594 1.523438 2.769531 0 5.515625-.867188 7.859375-2.582032 4.101562-2.992187 6.109375-7.953124 5.246094-12.945312l-2.839844-16.421875 12.046875-11.644531c3.664062-3.539063 4.96875-8.742188 3.40625-13.582032zm-26.542969 15.082032c-3.15625 3.054687-4.597656 7.453125-3.851562 11.773437l2.410156 13.921875-12.699219-6.617187c-3.863281-2.015625-8.480469-2.015625-12.34375 0l-12.699219 6.621093 2.410156-13.925781c.746094-4.320312-.691406-8.71875-3.851562-11.773437l-10.144531-9.800782 14.078125-2.027343c4.332031-.625 8.078125-3.328125 10.019531-7.234375l6.355469-12.769532 6.355468 12.769532c1.945313 3.90625 5.691407 6.609375 10.023438 7.234375l14.078125 2.027343zm0 0"/><path d="m236.355469 138.320312c-1.570313-4.859374-5.699219-8.332031-10.769531-9.0625l-16.699219-2.40625-7.460938-14.980468c-2.261719-4.546875-6.832031-7.371094-11.925781-7.371094s-9.664062 2.824219-11.925781 7.371094l-7.460938 14.980468-16.699219 2.40625c-5.070312.730469-9.195312 4.203126-10.769531 9.0625-1.5625 4.839844-.257812 10.042969 3.40625 13.582032l12.046875 11.644531-2.84375 16.421875c-.863281 4.992188 1.148438 9.953125 5.246094 12.945312 4.128906 3.015626 9.511719 3.421876 14.046875 1.058594l14.953125-7.792968 14.953125 7.792968c1.960937 1.019532 4.078125 1.527344 6.1875 1.527344 2.765625 0 5.511719-.871094 7.855469-2.582031 4.101562-2.996094 6.109375-7.957031 5.246094-12.949219l-2.839844-16.421875 12.046875-11.644531c3.664062-3.539063 4.96875-8.742188 3.40625-13.582032zm-26.542969 15.082032c-3.15625 3.054687-4.597656 7.453125-3.851562 11.773437l2.410156 13.921875-12.699219-6.617187c-3.863281-2.015625-8.480469-2.015625-12.34375 0l-12.699219 6.621093 2.410156-13.925781c.746094-4.320312-.691406-8.71875-3.851562-11.773437l-10.144531-9.800782 14.078125-2.027343c4.332031-.625 8.078125-3.328125 10.019531-7.234375l6.359375-12.769532 6.355469 12.769532c1.945312 3.90625 5.691406 6.609375 10.019531 7.234375l14.078125 2.027343zm0 0"/><path d="m129.730469 254.589844v25.402344c0 2.96875-6.019531 7.054687-10.40625 7.054687l-34.8125.066406c-9.882813 0-17.925781 8.261719-17.925781 18.421875 0 3.636719 1.019531 7.0625 2.816406 9.953125-3.089844 3.160157-4.789063 7.246094-4.789063 11.890625 0 4.925782 1.898438 9.488282 5.066407 12.839844-1.183594 2.371094-1.996094 5.335938-1.996094 9.003906 0 8.957032 6.25 16.4375 14.5 18.085938-.066406.671875-.097656 1.355468-.097656 2.046875 0 4.234375 1.417968 8.078125 4.105468 11.125 3.136719 3.550781 7.769532 5.589843 12.703125 5.589843h79.328125c2.195313 0 4.289063-.449218 6.214844-1.234374 1.921875 1.507812 4.332031 2.417968 6.957031 2.417968h22.417969c3.972656 0 7.464844-2.070312 9.480469-5.183594h83.589843c4.144532 0 7.5-3.355468 7.5-7.5v-70.007812c0-4.144531-3.355468-7.5-7.5-7.5h-82.710937c-1.738281-4.003906-5.726563-6.808594-10.359375-6.808594h-22.417969c-2.207031 0-4.261719.644532-6.003906 1.742188-2.660156-7.332032-7.289063-18.652344-13.460937-28.21875-2.769532-4.289063-4.234376-9.421875-4.234376-14.847656v-10.5c0-6.71875-5.367187-12.183594-11.96875-12.183594h-4.867187c-10.515625 0-21.128906 8.765625-21.128906 28.34375zm169.65625 112.484375h-74.28125v-55.011719h74.28125zm-104.28125-61.820313h15v67h-15zm-50.375-25.261718v-25.402344c0-7.980469 2.464843-13.34375 6.132812-13.34375h1.835938v7.6875c0 8.316406 2.292969 16.265625 6.632812 22.980468 6.4375 9.980469 11.171875 22.828126 12.90625 27.886719 1.15625 3.367188 3.21875 6.296875 5.964844 8.476563 1.191406.945312 1.902344 2.480468 1.902344 4.113281v56.351563c0 1.261718-.859375 2.328124-1.882813 2.328124h-79.328125c-.605469 0-1.179687-.203124-1.457031-.515624-.132812-.152344-.351562-.402344-.351562-1.195313 0-.941406.1875-1.660156.550781-2.125 2.132812-2.730469 2.515625-6.371094.992187-9.492187-1.535156-3.144532-4.65625-5.09375-8.148437-5.09375h-4.871094c-1.613281 0-2.925781-1.535157-2.925781-3.421876 0-2.238281.808594-3.035156 1.515625-3.484374 2.777343-1.765626 4.25-5.011719 3.746093-8.269532-.5-3.257812-2.878906-5.90625-6.054687-6.753906-1.128906-.300781-2.277344-1.542969-2.277344-3.335938 0-.550781 0-2.015624 3.847657-3.089843 3.453124-.964844 5.820312-4.019531 5.890624-7.597657.074219-3.59375-2.179687-6.75-5.609374-7.855468-1.035157-.332032-2.152344-1.511719-2.152344-3.304688 0-1.886718 1.3125-3.421875 2.9375-3.421875l34.8125-.066406c11.742187 0 25.390625-9.632813 25.390625-22.054687zm0 0"/><path d="m307 425c0-4.140625-3.355469-7.5-7.5-7.5h-220c-4.144531 0-7.5 3.359375-7.5 7.5s3.355469 7.5 7.5 7.5h220c4.144531 0 7.5-3.359375 7.5-7.5zm0 0"/><path d="m79.5 450.832031c-4.144531 0-7.5 3.359375-7.5 7.5 0 4.144531 3.355469 7.5 7.5 7.5h56.078125c4.144531 0 7.5-3.355469 7.5-7.5 0-4.140625-3.355469-7.5-7.5-7.5zm0 0"/></svg>