<svg height="512pt" viewBox="-10 0 512 512.00335" width="512pt" xmlns="http://www.w3.org/2000/svg"><path d="m491.308594 276.003906c-3.257813-12.40625-11.050782-20.875-21.964844-23.847656-17.40625-4.699219-35.425781 5.605469-40.332031 23.007812l-18.488281 54.980469c-12.304688-4.1875-26.480469-1.386719-36.273438 8.40625l-25.320312 25.316407c-17.976563-2.652344-36.5 3.34375-49.472657 16.3125-.449219.453124-.890625.910156-1.335937 1.382812-16.140625 17.230469-19.171875 42.96875-7.917969 63.847656-4.867187 9.710938-3.257813 21.871094 4.835937 29.960938l33.699219 33.703125c1.9375 1.933593 4.496094 2.925781 7.074219 2.925781 2.039062 0 4.085938-.621094 5.84375-1.886719 3.253906-2.347656 79.984375-57.726562 104.6875-82.429687 22.324219-22.324219 39.246094-98.753906 45.488281-130.578125 1.402344-7.152344 1.21875-14.445313-.523437-21.101563zm-19.101563 17.253906c-9.035156 46.066407-24.933593 105.210938-40.007812 120.285157-19.414063 19.414062-75.691407 60.984375-95.359375 75.347656l-27.660156-27.660156c-2.308594-2.308594-2.308594-6.0625 0-8.371094 3.308593-3.308594 3.878906-8.464844 1.382812-12.414063l-1.449219-2.292968c-8.6875-13.730469-7.203125-31.378906 3.59375-42.90625.292969-.3125.589844-.617188.894531-.921875 9.394532-9.398438 23.253907-13.203125 36.160157-9.917969 3.421875.871094 7.042969-.128906 9.535156-2.621094l29.09375-29.09375c5.921875-5.917968 15.558594-5.921875 21.480469 0s5.921875 15.558594 0 21.480469l-20.523438 20.523437c-3.902344 3.902344-3.902344 10.234376 0 14.140626 3.90625 3.90625 10.238282 3.90625 14.144532 0l20.519531-20.519532c12.457031-12.457031 13.605469-32.007812 3.441406-45.769531l20.601563-61.261719c.0625-.183594.121093-.375.171874-.566406 1.890626-6.960938 9.019532-11.113281 15.882813-9.257812 1.417969.386718 5.738281 1.5625 7.851563 9.621093.988281 3.753907 1.070312 7.964844.246093 12.175781zm0 0"/><path d="m194.636719 381.554688c-.433594-.464844-.875-.921876-1.328125-1.371094-12.972656-12.972656-31.492188-18.964844-49.472656-16.316406l-25.316407-25.316407c-9.792969-9.792969-23.972656-12.59375-36.273437-8.40625l-18.488282-54.976562c-4.90625-17.402344-22.929687-27.714844-40.355468-23.003907-10.894532 2.964844-18.6875 11.433594-21.941406 23.84375-1.746094 6.652344-1.929688 13.949219-.527344 21.097657 6.242187 31.824219 23.167968 108.257812 45.488281 130.582031 24.703125 24.699219 101.433594 80.082031 104.6875 82.429688 1.757813 1.265624 3.808594 1.886718 5.84375 1.886718 2.578125 0 5.140625-.992187 7.074219-2.929687l33.699218-33.699219c8.09375-8.09375 9.707032-20.25 4.835938-29.964844 11.253906-20.878906 8.222656-46.617187-7.925781-63.855468zm-10.980469 56.597656-1.449219 2.289062c-2.5 3.953125-1.925781 9.109375 1.378907 12.417969 2.308593 2.308594 2.308593 6.0625 0 8.371094l-27.65625 27.660156c-19.667969-14.363281-75.945313-55.929687-95.363282-75.347656-15.074218-15.074219-30.972656-74.21875-40.003906-120.285157-.828125-4.210937-.742188-8.421874.242188-12.175781 2.117187-8.0625 6.4375-9.238281 7.835937-9.617187 6.878906-1.855469 14.011719 2.292968 15.902344 9.253906.050781.191406.109375.378906.171875.566406l20.601562 61.257813c-10.164062 13.761719-9.019531 33.3125 3.4375 45.769531l20.523438 20.519531c3.90625 3.90625 10.238281 3.90625 14.140625 0 3.90625-3.902343 3.90625-10.234375 0-14.140625l-20.519531-20.523437c-5.921876-5.921875-5.921876-15.558594-.003907-21.476563 5.921875-5.921875 15.558594-5.925781 21.480469 0l29.09375 29.089844c2.496094 2.496094 6.121094 3.492188 9.535156 2.621094 12.910156-3.285156 26.765625.519531 36.164063 9.917968.304687.304688.601562.613282.882812.910157 10.808594 11.542969 12.289063 29.191406 3.605469 42.921875zm0 0"/><path d="m343.449219 205.6875c-3.949219-2.636719-8.136719-4.835938-12.503907-6.582031.054688-.339844.097657-.632813.132813-.871094.011719-.070313.023437-.140625.03125-.214844 5.203125-41.664062-1.261719-85.679687-17.742187-120.753906-.320313-.679687-.714844-1.316406-1.164063-1.898437-14.773437-30.414063-41.660156-60.394532-59.890625-73.488282-3.734375-2.679687-8.867188-2.425781-12.367188.554688-.167968.140625-.4375.359375-.808593.65625-24.453125 19.785156-45.542969 45.976562-59.378907 73.757812-.335937.671875-.589843 1.371094-.761718 2.082032-6.757813 13.949218-11.867188 28.539062-15.191406 43.40625-5.15625 23.039062-4.421876 51.785156-2.019532 71 .007813.066406.019532.136718.027344.203124.015625.109376.027344.183594.96875 5.195313-4.714844 1.800781-9.226562 4.125-13.472656 6.957031-23.9375 15.976563-33.84375 47.667969-24.15625 77.164063l13.5 50.882812c.972656 3.664063 3.929687 6.460938 7.640625 7.230469.675781.140625 1.355469.207031 2.027343.207031 3.023438 0 5.933594-1.375 7.851563-3.8125l36.363281-46.144531h4.847656c-.628906 3.175781-.949218 6.421875-.949218 9.683594 0 39.757812 42.875 66.644531 44.703125 67.769531 1.605469.988281 3.425781 1.484375 5.246093 1.484375 1.808594 0 3.613282-.488281 5.214844-1.464844 1.828125-1.117187 44.730469-27.808594 44.730469-67.789062 0-3.261719-.316406-6.507813-.945313-9.683594h4.847657l36.363281 46.144531c1.917969 2.4375 4.824219 3.8125 7.851562 3.8125.671876 0 1.351563-.066406 2.027344-.207031 3.710938-.769531 6.667969-3.566406 7.636719-7.230469l13.503906-50.882812c9.6875-29.496094-.21875-61.191407-24.164062-77.167969zm-146.65625 65.53125c-3.980469-21.117188-14.371094-76.257812-15.199219-80.660156-2.714844-21.980469-2.039062-47.011719 1.730469-63.855469 2.195312-9.824219 5.261719-19.519531 9.148437-28.957031 16.792969 11.347656 37.167969 13.046875 54.007813 13.046875 16.796875 0 37.121093-1.683594 53.859375-12.925781 10.933594 29.296874 15.011718 64.792968 10.9375 97.5625-.945313 6.292968-9.699219 51.1875-14.523438 75.789062zm49.878906-248.355469c14.839844 12.589844 33.460937 34.605469 45.128906 56.507813-9.964843 7.949218-24.007812 11.417968-45.320312 11.417968-21.339844 0-35.417969-3.496093-45.425781-11.519531 11.476562-20.929687 27.375-40.589843 45.617187-56.40625zm-93.820313 286.402344-8.445312-31.832031c-.050781-.199219-.113281-.398438-.175781-.59375-6.90625-20.722656-.101563-43.648438 16.175781-54.511719 1.976562-1.316406 4.039062-2.480469 6.164062-3.484375 2.347657 12.445312 5.855469 31.0625 11.105469 58.917969zm123.480469-8.363281c0 21.828125-20.128906 39.664062-29.929687 47.050781-9.816406-7.433594-29.96875-25.351563-29.96875-47.050781 0-3.308594.546875-6.585938 1.605468-9.683594h56.6875c1.054688 3.097656 1.605469 6.375 1.605469 9.683594zm72.207031-24.0625c-.066406.195312-.125.394531-.179687.59375l-8.445313 31.832031-24.21875-30.734375c2.171876-11.050781 7.6875-39.179688 11.507813-59.199219 1.769531.886719 3.488281 1.882813 5.148437 2.992188 16.285157 10.867187 23.089844 33.792969 16.1875 54.515625zm0 0"/><path d="m246.382812 233.167969c-28.957031 0-52.515624-23.558594-52.515624-52.515625 0-28.957032 23.558593-52.515625 52.515624-52.515625 28.957032 0 52.515626 23.558593 52.515626 52.515625 0 28.957031-23.558594 52.515625-52.515626 52.515625zm0-85.03125c-17.929687 0-32.515624 14.585937-32.515624 32.515625 0 17.929687 14.585937 32.515625 32.515624 32.515625 17.929688 0 32.515626-14.585938 32.515626-32.515625 0-17.929688-14.585938-32.515625-32.515626-32.515625zm0 0"/><path d="m456.519531 199.988281c-5.273437 0-9.6875-4.132812-9.976562-9.464843-4.007813-74.527344-48.710938-140.214844-116.667969-171.433594-5.015625-2.304688-7.214844-8.242188-4.910156-13.261719 2.304687-5.019531 8.246094-7.21875 13.261718-4.914063 36.027344 16.550782 67.015626 42.589844 89.617188 75.296876 23.113281 33.449218 36.484375 72.605468 38.671875 113.238281.296875 5.515625-3.933594 10.226562-9.449219 10.519531-.183594.015625-.367187.019531-.546875.019531zm0 0"/><path d="m455.460938 235.640625c-.648438 0-1.308594-.066406-1.949219-.199219-.640625-.128906-1.269531-.316406-1.871094-.566406-.597656-.25-1.1875-.5625-1.726563-.921875-.550781-.371094-1.0625-.78125-1.523437-1.25-.457031-.460937-.878906-.96875-1.238281-1.511719-.359375-.550781-.667969-1.128906-.917969-1.730468-.25-.597657-.441406-1.226563-.570313-1.867188-.132812-.652344-.199218-1.300781-.199218-1.960938 0-.648437.066406-1.3125.199218-1.949218.128907-.640625.320313-1.269532.570313-1.871094s.558594-1.1875.917969-1.730469c.359375-.539062.78125-1.058593 1.238281-1.519531.460937-.460938.972656-.871094 1.523437-1.238281.539063-.359375 1.128907-.671875 1.726563-.921875.601563-.25 1.230469-.4375 1.871094-.570313 3.25-.648437 6.699219.410157 9.019531 2.730469 1.871094 1.871094 2.933594 4.441406 2.933594 7.070312 0 .660157-.0625 1.3125-.191406 1.960938-.128907.640625-.320313 1.269531-.570313 1.871094-.25.597656-.558594 1.179687-.917969 1.730468-.371094.539063-.78125 1.050782-1.25 1.507813-.460937.472656-.972656.882813-1.523437 1.25-.539063.359375-1.117188.671875-1.71875.921875-.609375.25-1.230469.4375-1.871094.570312-.648437.125-1.300781.195313-1.960937.195313zm0 0"/><path d="m36.246094 199.988281c-.183594 0-.363282-.007812-.546875-.015625-5.515625-.296875-9.742188-5.007812-9.445313-10.523437 2.183594-40.632813 15.554688-79.789063 38.667969-113.234375 22.601563-32.710938 53.59375-58.75 89.617187-75.296875 5.015626-2.304688 10.957032-.109375 13.261719 4.910156 2.308594 5.019531.105469 10.957031-4.910156 13.261719-67.957031 31.21875-112.660156 96.90625-116.667969 171.433594-.285156 5.332031-4.699218 9.464843-9.976562 9.464843zm0 0"/><path d="m37.304688 235.640625c-.660157 0-1.3125-.066406-1.960938-.199219-.640625-.128906-1.269531-.316406-1.871094-.566406-.597656-.25-1.179687-.5625-1.730468-.921875-.539063-.371094-1.046876-.78125-1.507813-1.25-.46875-.460937-.878906-.96875-1.25-1.511719-.359375-.550781-.671875-1.128906-.921875-1.730468-.25-.597657-.4375-1.226563-.570312-1.867188-.128907-.652344-.195313-1.300781-.195313-1.960938 0-.648437.066406-1.3125.195313-1.949218.132812-.640625.320312-1.269532.570312-1.871094s.5625-1.1875.921875-1.730469c.371094-.539062.78125-1.058593 1.25-1.519531.460937-.460938.96875-.871094 1.507813-1.238281.554687-.359375 1.132812-.671875 1.730468-.921875.601563-.25 1.230469-.4375 1.871094-.570313 1.289062-.257812 2.621094-.257812 3.910156 0 .640625.132813 1.269532.320313 1.871094.570313.597656.25 1.179688.5625 1.726562.921875.542969.367187 1.050782.777343 1.523438 1.238281.460938.460938.878906.96875 1.238281 1.519531.359375.539063.667969 1.128907.917969 1.730469s.441406 1.230469.570312 1.871094c.132813.640625.203126 1.300781.203126 1.949218 0 .660157-.070313 1.308594-.203126 1.960938-.128906.640625-.320312 1.269531-.570312 1.867188-.25.601562-.558594 1.179687-.917969 1.730468-.371093.542969-.777343 1.050782-1.238281 1.511719-.472656.46875-.980469.878906-1.523438 1.25-.546874.359375-1.128906.671875-1.726562.921875-.601562.25-1.230469.4375-1.871094.566406s-1.300781.199219-1.949218.199219zm0 0"/></svg>