<svg xmlns="http://www.w3.org/2000/svg" viewBox="0 0 24.5 24.5"><path d="M21.673 9.823H13.05c0-2.591.978-2.726 2.597-2.951 1.688-.234 3.999-.555 3.999-4.587a.8.8 0 1 0-1.6 0c0 2.639-.986 2.775-2.62 3.002-1.678.233-3.976.552-3.976 4.536H2.827A2.827 2.827 0 0 0 0 12.65v7.538a2.828 2.828 0 0 0 2.827 2.827h18.846a2.827 2.827 0 0 0 2.827-2.827V12.65a2.827 2.827 0 0 0-2.827-2.827zm-4.711 2.827h1.885v1.885h-1.885V12.65zm2.826 2.827v1.885h-1.885v-1.885h1.885zm-5.653-2.827h1.885v1.885h-1.885V12.65zm2.827 2.827v1.885h-1.885v-1.885h1.885zm-5.654-2.827h1.885v1.885h-1.885V12.65zm2.827 2.827v1.885H12.25v-1.885h1.885zM8.481 12.65h1.885v1.885H8.481V12.65zm2.827 2.827v1.885H9.423v-1.885h1.885zM5.654 12.65h1.885v1.885H5.654V12.65zm2.827 2.827v1.885H6.596v-1.885h1.885zM2.827 12.65h1.885v1.885H2.827V12.65zm2.827 2.827v1.885H3.769v-1.885h1.885zm-.942 4.711H2.827v-1.885h1.885v1.885zm14.134 0H5.654v-1.885h13.192v1.885zm2.827 0h-1.885v-1.885h1.885v1.885zm0-5.654h-1.885v-1.885h1.885v1.885z" fill="#030104"/></svg>