<svg height="512pt" viewBox="0 0 512 512" width="512pt" xmlns="http://www.w3.org/2000/svg"><path d="m467 0h-422c-24.8125 0-45 20.1875-45 45v180c0 24.8125 20.1875 45 45 45h15v157.917969c0 6.910156 1.625 13.832031 4.699219 20.019531l26.789062 55.574219c2.5 5.191406 7.75 8.488281 13.511719 8.488281h180c5.761719 0 11.011719-3.296875 13.511719-8.488281l26.789062-55.574219c3.074219-6.191406 4.699219-13.109375 4.699219-20.019531v-52.917969c0-24.8125-20.1875-45-45-45-5.855469 0-11.449219 1.136719-16.585938 3.179688-5.203124-19.09375-22.691406-33.179688-43.414062-33.179688-11.515625 0-22.03125 4.355469-30 11.496094-7.96875-7.140625-18.484375-11.496094-30-11.496094-5.257812 0-10.304688.914062-15 2.578125v-32.578125h317c24.8125 0 45-20.1875 45-45v-180c0-24.8125-20.1875-45-45-45zm-302 330c8.269531 0 15 6.730469 15 15v60c0 8.285156 6.714844 15 15 15s15-6.714844 15-15v-60c0-8.269531 6.730469-15 15-15s15 6.730469 15 15v60c0 8.285156 6.714844 15 15 15s15-6.714844 15-15v-30c0-8.269531 6.730469-15 15-15s15 6.730469 15 15v52.917969c0 2.316406-.546875 4.636719-1.585938 6.710937-.03125.0625-.0625.128906-.09375.191406l-22.742187 47.179688h-161.15625l-22.742187-47.179688c-.03125-.0625-.0625-.128906-.09375-.191406-1.039063-2.074218-1.585938-4.394531-1.585938-6.710937v-202.917969c0-8.269531 6.730469-15 15-15s15 6.730469 15 15v180c0 8.285156 6.714844 15 15 15s15-6.714844 15-15v-60c0-8.269531 6.730469-15 15-15zm317-105c0 8.269531-6.730469 15-15 15h-317v-15c0-24.8125-20.1875-45-45-45s-45 20.1875-45 45v15h-15c-8.269531 0-15-6.730469-15-15v-180c0-8.269531 6.730469-15 15-15h422c8.269531 0 15 6.730469 15 15zm0 0"/><path d="m135 60h-30c-8.285156 0-15 6.714844-15 15s6.714844 15 15 15h30c8.285156 0 15-6.714844 15-15s-6.714844-15-15-15zm0 0"/><path d="m225 60h-30c-8.285156 0-15 6.714844-15 15s6.714844 15 15 15h30c8.285156 0 15-6.714844 15-15s-6.714844-15-15-15zm0 0"/><path d="m315 60h-30c-8.285156 0-15 6.714844-15 15s6.714844 15 15 15h30c8.285156 0 15-6.714844 15-15s-6.714844-15-15-15zm0 0"/><path d="m407 60h-32c-8.285156 0-15 6.714844-15 15s6.714844 15 15 15h32c8.285156 0 15-6.714844 15-15s-6.714844-15-15-15zm0 0"/><path d="m135 120h-30c-8.285156 0-15 6.714844-15 15s6.714844 15 15 15h30c8.285156 0 15-6.714844 15-15s-6.714844-15-15-15zm0 0"/><path d="m225 120h-30c-8.285156 0-15 6.714844-15 15s6.714844 15 15 15h30c8.285156 0 15-6.714844 15-15s-6.714844-15-15-15zm0 0"/><path d="m315 120h-30c-8.285156 0-15 6.714844-15 15s6.714844 15 15 15h30c8.285156 0 15-6.714844 15-15s-6.714844-15-15-15zm0 0"/><path d="m407 120h-32c-8.285156 0-15 6.714844-15 15s6.714844 15 15 15h32c8.285156 0 15-6.714844 15-15s-6.714844-15-15-15zm0 0"/><path d="m225 180h-30c-8.285156 0-15 6.714844-15 15s6.714844 15 15 15h30c8.285156 0 15-6.714844 15-15s-6.714844-15-15-15zm0 0"/><path d="m315 180h-30c-8.285156 0-15 6.714844-15 15s6.714844 15 15 15h30c8.285156 0 15-6.714844 15-15s-6.714844-15-15-15zm0 0"/><path d="m407 180h-32c-8.285156 0-15 6.714844-15 15s6.714844 15 15 15h32c8.285156 0 15-6.714844 15-15s-6.714844-15-15-15zm0 0"/></svg>