<?xml version="1.0" ?><svg viewBox="0 0 467.39801 467.38" xml:space="preserve" xmlns="http://www.w3.org/2000/svg"><defs id="defs40"/><g id="Lcd_With_Tablet_and_mobile_icon" transform="translate(-22.301,-22.31)"><g id="g32"><path d="m 256.001,22.31 c 129.121,0 233.698,104.911 233.698,233.69 0,129.113 -104.577,233.69 -233.698,233.69 -129.118,0 -233.7,-104.577 -233.7,-233.69 0,-128.779 104.582,-233.69 233.7,-233.69 z" id="path4" style="clip-rule:evenodd;fill:#000;fill-rule:evenodd"/><path d="m 472.55,168.238 c 11.099,27.237 17.149,56.822 17.149,87.762 0,129.113 -104.577,233.69 -233.698,233.69 -4.366,0 -8.408,0 -12.774,-0.324 L 95.275,375.035 c 0,-37.658 -0.334,-80.031 -0.334,-117.689 0,-5.039 4.027,-9.076 8.742,-9.076 5.712,0 11.094,0 16.472,0 0,-43.05 0,-86.416 0,-129.8 l 287.843,-3.025 c 1.68,3.024 63.206,52.793 64.552,52.793 z" id="path6" style="clip-rule:evenodd;fill:#000;fill-rule:evenodd"/><path d="m 319.893,355.862 h -115.34 c -4.366,0 -7.735,-3.35 -7.735,-7.386 v 0 c 0,-4.381 3.369,-7.73 7.735,-7.73 h 115.34 c 4.037,0 7.73,3.35 7.73,7.73 v 0 c 0,4.037 -3.693,7.386 -7.73,7.386 z" id="path8" style="clip-rule:evenodd;fill:#324a5e;fill-rule:evenodd"/><rect height="40.025002" id="rect10" style="clip-rule:evenodd;fill:#21313e;fill-rule:evenodd" width="61.873001" x="231.117" y="300.72101"/><rect height="201.08" id="rect12" style="clip-rule:evenodd;fill:#324a5e;fill-rule:evenodd" width="291.54099" x="116.457" y="115.444"/><rect height="160.71201" id="rect14" style="clip-rule:evenodd;fill:#ffffff;fill-rule:evenodd" width="251.18201" x="136.632" y="135.638"/><path d="m 415.041,259.369 h -63.885 v 100.53 h 63.885 z M 387.479,367.63 c 0,-2.682 -2.014,-4.695 -4.371,-4.695 -2.357,0 -4.371,2.014 -4.371,4.695 0,2.357 2.014,4.371 4.371,4.371 2.357,0 4.371,-2.014 4.371,-4.371 z M 372.687,252.984 c 0,0.668 0.334,1.002 1.002,1.002 h 18.829 c 0.335,0 1.003,-0.334 1.003,-1.002 0,-0.678 -0.668,-1.012 -1.003,-1.012 h -18.829 c -0.668,0.001 -1.002,0.335 -1.002,1.012 z m 48.414,1.336 v 113.31 c 0,4.714 -4.037,8.751 -8.741,8.751 h -58.502 c -4.715,0 -8.742,-4.037 -8.742,-8.751 V 254.32 c 0,-4.705 4.027,-8.732 8.742,-8.732 h 58.502 c 4.703,0 8.741,4.027 8.741,8.732 z" id="path16" style="clip-rule:evenodd;fill:#253645;fill-rule:evenodd"/><rect height="102.888" id="rect18" style="clip-rule:evenodd;fill:#ffffff;fill-rule:evenodd" width="65.238998" x="350.479" y="258.35699"/><path d="m 383.108,362.935 c -2.357,0 -4.371,2.014 -4.371,4.695 0,2.357 2.014,4.371 4.371,4.371 2.357,0 4.371,-2.014 4.371,-4.371 0,-2.682 -2.013,-4.695 -4.371,-4.695 z" id="path20" style="clip-rule:evenodd;fill:#ffffff;fill-rule:evenodd"/><path d="m 373.688,253.986 h 18.829 c 0.335,0 1.003,-0.334 1.003,-1.002 0,-0.678 -0.668,-1.012 -1.003,-1.012 h -18.829 c -0.668,0 -1.002,0.334 -1.002,1.012 0.001,0.668 0.335,1.002 1.002,1.002 z" id="path22" style="clip-rule:evenodd;fill:#ffffff;fill-rule:evenodd"/><path d="m 181.019,259.369 h -83.73 v 100.53 h 83.729 v -100.53 z m -62.205,-6.385 c 0,0.668 0.339,1.002 1.007,1.002 h 38.67 c 0.678,0 1.341,-0.334 1.341,-1.002 0,-0.678 -0.663,-1.012 -1.341,-1.012 h -38.67 c -0.668,0.001 -1.007,0.335 -1.007,1.012 z m 68.589,1.336 v 113.31 c 0,4.714 -4.023,8.751 -9.071,8.751 H 99.976 c -4.7,0 -8.737,-4.037 -8.737,-8.751 V 254.32 c 0,-4.705 4.037,-8.732 8.737,-8.732 h 78.356 c 5.048,0 9.071,4.027 9.071,8.732 z" id="path24" style="clip-rule:evenodd;fill:#253645;fill-rule:evenodd"/><path d="m 139.328,362.935 c -2.696,0 -4.371,2.014 -4.371,4.695 0,2.357 1.675,4.371 4.371,4.371 2.353,0 4.366,-2.014 4.366,-4.371 0,-2.682 -2.013,-4.695 -4.366,-4.695 z" id="path26" style="clip-rule:evenodd;fill:#ffffff;fill-rule:evenodd"/><path d="m 119.821,253.986 h 38.67 c 0.678,0 1.341,-0.334 1.341,-1.002 0,-0.678 -0.663,-1.012 -1.341,-1.012 h -38.67 c -0.668,0 -1.007,0.334 -1.007,1.012 0,0.668 0.339,1.002 1.007,1.002 z" id="path28" style="clip-rule:evenodd;fill:#ffffff;fill-rule:evenodd"/><rect height="100.53" id="rect30" style="clip-rule:evenodd;fill:#ffffff;fill-rule:evenodd" width="83.728996" x="97.289001" y="259.36899"/></g></g><g id="Layer_1" transform="translate(-22.301,-22.31)"/></svg>
