<svg height="511pt" viewBox="0 1 511 511.99998" width="511pt" xmlns="http://www.w3.org/2000/svg"><path d="m470.957031 116.148438c-3.027343-4.632813-9.238281-5.9375-13.871093-2.910157-4.636719 3.027344-5.9375 9.238281-2.910157 13.871094 25.042969 38.328125 38.28125 82.894531 38.28125 128.890625 0 130.105469-105.851562 235.957031-235.957031 235.957031s-235.957031-105.851562-235.957031-235.957031 105.851562-235.957031 235.957031-235.957031c53.234375 0 103.480469 17.300781 145.300781 50.035156 4.359375 3.410156 10.65625 2.640625 14.070313-1.71875 3.410156-4.355469 2.644531-10.65625-1.714844-14.066406-45.382812-35.519531-99.898438-54.292969-157.65625-54.292969-68.378906 0-132.667969 26.628906-181.019531 74.980469-48.351563 48.351562-74.980469 112.640625-74.980469 181.019531s26.628906 132.667969 74.980469 181.019531c48.351562 48.351563 112.640625 74.980469 181.019531 74.980469s132.667969-26.628906 181.015625-74.980469c48.355469-48.351562 74.980469-112.640625 74.980469-181.019531.003906-49.898438-14.359375-98.257812-41.539063-139.851562zm0 0"/><path d="m210.117188 152.285156c-2.683594-4.839844-8.785157-6.585937-13.625-3.902344-39.382813 21.851563-63.847657 63.378907-63.847657 108.375 0 16.667969 3.257813 32.84375 9.679688 48.082032 1.617187 3.828125 5.332031 6.132812 9.242187 6.132812 1.296875 0 2.617188-.253906 3.890625-.792968 5.097657-2.148438 7.492188-8.027344 5.339844-13.128907-5.378906-12.757812-8.109375-26.316406-8.109375-40.296875 0-37.714844 20.511719-72.523437 53.527344-90.84375 4.839844-2.683594 6.589844-8.785156 3.902344-13.625zm0 0"/><path d="m199.617188 366.902344c16.246093 9.738281 32.726562 13.710937 56.882812 13.710937 68.292969 0 123.855469-55.5625 123.855469-123.855469 0-44.066406-23.714844-85.167968-61.890625-107.265624-4.796875-2.773438-10.921875-1.132813-13.695313 3.65625-2.773437 4.789062-1.136719 10.921874 3.652344 13.695312 32.007813 18.523438 51.890625 52.976562 51.890625 89.914062 0 57.242188-46.570312 103.8125-103.8125 103.8125-20.480469 0-33.539062-3.042968-46.574219-10.859374-4.75-2.847657-10.902343-1.304688-13.75 3.441406-2.847656 4.746094-1.304687 10.902344 3.441407 13.75zm0 0"/><path d="m266.523438 293.554688v-191.566407c0-5.535156-4.488282-10.023437-10.023438-10.023437s-10.023438 4.488281-10.023438 10.023437v191.566407c0 5.535156 4.488282 10.023437 10.023438 10.023437s10.023438-4.488281 10.023438-10.023437zm0 0"/><path d="m183.242188 329.433594c-2.078126-5.128906-7.917969-7.605469-13.054688-5.527344-5.128906 2.082031-7.601562 7.921875-5.523438 13.054688l.121094.304687c1.582032 3.898437 5.332032 6.261719 9.292969 6.261719 1.253906 0 2.527344-.234375 3.761719-.734375 5.128906-2.078125 7.601562-7.921875 5.527344-13.050781zm0 0"/><path d="m427.613281 94.726562c1.578125 3.898438 5.332031 6.261719 9.292969 6.261719 1.25 0 2.527344-.238281 3.757812-.734375 5.132813-2.082031 7.605469-7.921875 5.527344-13.054687l-.125-.304688c-2.074218-5.128906-7.917968-7.605469-13.050781-5.527343-5.128906 2.078124-7.605469 7.921874-5.527344 13.050781zm0 0"/></svg>