<svg height="511pt" viewBox="0 1 511 512" width="511pt" xmlns="http://www.w3.org/2000/svg"><path d="M470.957 116.148c-3.027-4.632-9.238-5.937-13.871-2.91-4.637 3.028-5.938 9.239-2.91 13.871 25.043 38.329 38.281 82.895 38.281 128.891 0 130.105-105.852 235.957-235.957 235.957S20.543 386.105 20.543 256 126.395 20.043 256.5 20.043c53.234 0 103.48 17.3 145.3 50.035 4.36 3.41 10.657 2.64 14.071-1.719 3.41-4.355 2.645-10.656-1.715-14.066C368.773 18.773 314.258 0 256.5 0 188.121 0 123.832 26.629 75.48 74.98 27.13 123.332.5 187.621.5 256s26.629 132.668 74.98 181.02C123.832 485.37 188.121 512 256.5 512s132.668-26.629 181.016-74.98c48.355-48.352 74.98-112.641 74.98-181.02.004-49.898-14.36-98.258-41.539-139.852zm0 0"/><path d="M210.117 152.285c-2.683-4.84-8.785-6.586-13.625-3.902-39.383 21.851-63.847 63.379-63.847 108.375 0 16.668 3.257 32.844 9.68 48.082a10.034 10.034 0 0 0 9.241 6.133 9.96 9.96 0 0 0 3.891-.793c5.098-2.149 7.492-8.028 5.34-13.13-5.379-12.757-8.11-26.316-8.11-40.296 0-37.715 20.512-72.524 53.528-90.844 4.84-2.683 6.59-8.785 3.902-13.625zm-10.5 214.617c16.246 9.739 32.727 13.711 56.883 13.711 68.293 0 123.855-55.562 123.855-123.855 0-44.067-23.714-85.168-61.89-107.266a10.023 10.023 0 0 0-13.695 3.656c-2.774 4.79-1.137 10.922 3.652 13.696 32.008 18.523 51.89 52.976 51.89 89.914 0 57.242-46.57 103.812-103.812 103.812-20.48 0-33.54-3.043-46.574-10.86-4.75-2.847-10.903-1.304-13.75 3.442-2.848 4.746-1.305 10.903 3.441 13.75zm0 0"/><path d="M266.523 293.555V101.988c0-5.535-4.488-10.023-10.023-10.023s-10.023 4.488-10.023 10.023v191.567c0 5.535 4.488 10.023 10.023 10.023s10.023-4.488 10.023-10.023zm-83.281 35.879c-2.078-5.13-7.918-7.606-13.054-5.528a10.026 10.026 0 0 0-5.524 13.055l.121.305a10.028 10.028 0 0 0 13.055 5.527c5.129-2.078 7.601-7.922 5.527-13.05zM427.613 94.727c1.578 3.898 5.332 6.261 9.293 6.261 1.25 0 2.528-.238 3.758-.734 5.133-2.082 7.606-7.922 5.527-13.055l-.125-.304c-2.074-5.13-7.918-7.606-13.05-5.528-5.13 2.078-7.606 7.922-5.528 13.051zm0 0"/></svg>