<svg xmlns="http://www.w3.org/2000/svg" width="36.164" height="36.164"><path d="M10.296 26.25V3.214h14.607V21h1.409V2.026A2.032 2.032 0 0 0 24.286 0H10.913a2.033 2.033 0 0 0-2.027 2.026v25.949c0 1.113.912 2.024 2.027 2.024h3.628l-2-3.75-2.245.001zM15.46 1.461h4.279c.135 0 .244.109.244.246a.244.244 0 0 1-.244.244H15.46a.245.245 0 1 1 0-.49zm11.818 22.28v-.25c0-.558-.453-1.013-1.014-1.013h-.107c-.562 0-1.014.455-1.014 1.012v1.142h-.391V23.49c0-.557-.452-1.012-1.012-1.012h-.11c-.558 0-1.013.455-1.013 1.012v1.142h-.391V23.49c0-.557-.453-1.012-1.012-1.012h-.109c-.561 0-1.013.455-1.013 1.012v1.142h-.323v-2.675c2.09-.541 3.646-2.426 3.646-4.682a4.86 4.86 0 0 0-4.854-4.855 4.86 4.86 0 0 0-4.854 4.855 4.86 4.86 0 0 0 3.914 4.758v6.239c-1.08-1.151-1.733-2.434-2.432-2.594-.903-.209-1.665.485-1.041 1.689.625 1.203 3.615 6.425 3.619 6.431.396.96 1.67 2.367 4.68 2.366 4.828.001 4.828-4.307 4.828-4.307v-6.219l.002-.01v-1.887h.001zm-8.526-6.745l-.11-.001a1.02 1.02 0 0 0-1.019 1.021v1.123a2.091 2.091 0 0 1-1.156-1.863c0-1.155.94-2.096 2.096-2.096 1.156 0 2.097.94 2.097 2.096 0 .704-.354 1.326-.887 1.705v-.965a1.019 1.019 0 0 0-1.021-1.02zm-4.543.279a4.36 4.36 0 0 1 4.354-4.355 4.36 4.36 0 0 1 4.354 4.355c0 1.979-1.336 3.633-3.146 4.161v-1.312a3.103 3.103 0 0 0 1.887-2.849 3.1 3.1 0 0 0-3.096-3.096 3.1 3.1 0 0 0-3.096 3.096c0 1.376.91 2.533 2.156 2.934v1.312a4.36 4.36 0 0 1-3.413-4.246z"/></svg>