<svg height="512pt" viewBox="-21 0 512 512" width="512pt" xmlns="http://www.w3.org/2000/svg"><path d="m421.5 472.167969c-4.140625 0-7.5 3.355469-7.5 7.5v17.332031h-45v-44.5c0-4.144531-3.359375-7.5-7.5-7.5h-194c-4.140625 0-7.5 3.355469-7.5 7.5v44.5h-145v-337c0-4.144531-3.359375-7.5-7.5-7.5s-7.5 3.355469-7.5 7.5v344.5c0 4.144531 3.359375 7.5 7.5 7.5h414c4.140625 0 7.5-3.355469 7.5-7.5v-24.832031c0-4.144531-3.359375-7.5-7.5-7.5zm-246.5 24.832031v-37h179v37zm0 0"/><path d="m61.5 359.5h306c4.140625 0 7.5-3.355469 7.5-7.5s-3.359375-7.5-7.5-7.5h-306c-4.140625 0-7.5 3.355469-7.5 7.5s3.359375 7.5 7.5 7.5zm0 0"/><path d="m61.5 395.5h306c4.140625 0 7.5-3.355469 7.5-7.5s-3.359375-7.5-7.5-7.5h-306c-4.140625 0-7.5 3.355469-7.5 7.5s3.359375 7.5 7.5 7.5zm0 0"/><path d="m61.5 431.5h306c4.140625 0 7.5-3.355469 7.5-7.5s-3.359375-7.5-7.5-7.5h-306c-4.140625 0-7.5 3.355469-7.5 7.5s3.359375 7.5 7.5 7.5zm0 0"/><path d="m61.5 467.5h78.003906c4.140625 0 7.5-3.355469 7.5-7.5s-3.359375-7.5-7.5-7.5h-78.003906c-4.140625 0-7.5 3.355469-7.5 7.5s3.359375 7.5 7.5 7.5zm0 0"/><path d="m239 166c0 21.78125 17.71875 39.5 39.5 39.5s39.5-17.71875 39.5-39.5-17.71875-39.5-39.5-39.5-39.5 17.71875-39.5 39.5zm39.5-24.5c13.507812 0 24.5 10.988281 24.5 24.5s-10.992188 24.5-24.5 24.5-24.5-10.988281-24.5-24.5 10.992188-24.5 24.5-24.5zm0 0"/><path d="m470 71.5c0-39.425781-32.074219-71.5-71.5-71.5-35.335938 0-64.746094 25.769531-70.472656 59.5h-320.527344c-4.140625 0-7.5 3.355469-7.5 7.5v60.832031c0 4.144531 3.359375 7.5 7.5 7.5s7.5-3.355469 7.5-7.5v-53.332031h312.074219c.214843 5.15625.96875 10.179688 2.222656 15h-30.464844c-4.140625 0-7.5 3.355469-7.5 7.5s3.359375 7.5 7.5 7.5h36.269531c9.789063 18.730469 27.625 32.621094 48.898438 37.019531v59.34375l-99.683594 62.875-132.34375-73.480469c-2.40625-1.335937-5.351562-1.246093-7.667968.230469l-99.304688 63.234375v-149.222656h222c4.140625 0 7.5-3.355469 7.5-7.5s-3.359375-7.5-7.5-7.5h-229.5c-4.140625 0-7.5 3.355469-7.5 7.5v216c0 4.144531 3.359375 7.5 7.5 7.5h354c4.140625 0 7.5-3.355469 7.5-7.5v-170.011719c5.148438-.039062 10.164062-.625 15-1.699219v306.710938c0 4.144531 3.359375 7.5 7.5 7.5s7.5-3.355469 7.5-7.5v-311.847656c24.210938-11.46875 41-36.132813 41-64.652344zm-425 234v-33.996094l103.59375-65.964844 180.039062 99.960938zm339 0h-24.46875l-60.257812-33.457031 84.726562-53.445313zm14.5-177.5c-31.152344 0-56.5-25.347656-56.5-56.5s25.347656-56.5 56.5-56.5 56.5 25.347656 56.5 56.5-25.347656 56.5-56.5 56.5zm0 0"/><path d="m435.773438 44.496094c-3.089844-2.75-7.832032-2.476563-10.585938.617187l-33.375 37.488281-22.257812-17.796874c-3.234376-2.585938-7.957032-2.058594-10.542969 1.175781-2.585938 3.234375-2.058594 7.957031 1.175781 10.542969l27.8125 22.234374c1.378906 1.105469 3.035156 1.644532 4.679688 1.644532 2.070312 0 4.128906-.855469 5.605468-2.515625l38.105469-42.800781c2.753906-3.09375 2.476563-7.832032-.617187-10.589844zm0 0"/></svg>