<svg height="512pt" viewBox="-21 0 512 512" width="512pt" xmlns="http://www.w3.org/2000/svg"><path d="M421.5 472.168a7.5 7.5 0 0 0-7.5 7.5V497h-45v-44.5a7.5 7.5 0 0 0-7.5-7.5h-194a7.5 7.5 0 0 0-7.5 7.5V497H15V160a7.5 7.5 0 1 0-15 0v344.5a7.5 7.5 0 0 0 7.5 7.5h414a7.5 7.5 0 0 0 7.5-7.5v-24.832a7.5 7.5 0 0 0-7.5-7.5zM175 497v-37h179v37zm0 0"/><path d="M61.5 359.5h306c4.14 0 7.5-3.355 7.5-7.5s-3.36-7.5-7.5-7.5h-306c-4.14 0-7.5 3.355-7.5 7.5s3.36 7.5 7.5 7.5zm0 36h306c4.14 0 7.5-3.355 7.5-7.5s-3.36-7.5-7.5-7.5h-306c-4.14 0-7.5 3.355-7.5 7.5s3.36 7.5 7.5 7.5zm0 36h306c4.14 0 7.5-3.355 7.5-7.5s-3.36-7.5-7.5-7.5h-306c-4.14 0-7.5 3.355-7.5 7.5s3.36 7.5 7.5 7.5zm0 36h78.004c4.14 0 7.5-3.355 7.5-7.5s-3.36-7.5-7.5-7.5H61.5c-4.14 0-7.5 3.355-7.5 7.5s3.36 7.5 7.5 7.5zM239 166c0 21.781 17.719 39.5 39.5 39.5S318 187.781 318 166s-17.719-39.5-39.5-39.5S239 144.219 239 166zm39.5-24.5c13.508 0 24.5 10.988 24.5 24.5s-10.992 24.5-24.5 24.5S254 179.512 254 166s10.992-24.5 24.5-24.5zm0 0"/><path d="M470 71.5C470 32.074 437.926 0 398.5 0c-35.336 0-64.746 25.77-70.473 59.5H7.5A7.5 7.5 0 0 0 0 67v60.832a7.5 7.5 0 1 0 15 0V74.5h312.074a71.358 71.358 0 0 0 2.223 15h-30.465c-4.14 0-7.5 3.355-7.5 7.5s3.36 7.5 7.5 7.5h36.27c9.789 18.73 27.625 32.621 48.898 37.02v59.343l-99.684 62.875-132.343-73.48a7.499 7.499 0 0 0-7.668.23L45 253.723V104.5h222c4.14 0 7.5-3.355 7.5-7.5s-3.36-7.5-7.5-7.5H37.5A7.5 7.5 0 0 0 30 97v216a7.5 7.5 0 0 0 7.5 7.5h354a7.5 7.5 0 0 0 7.5-7.5V142.988a71.603 71.603 0 0 0 15-1.699V448a7.5 7.5 0 1 0 15 0V136.152c24.21-11.468 41-36.132 41-64.652zm-425 234v-33.996l103.594-65.965L328.633 305.5zm339 0h-24.469l-60.258-33.457L384 218.598zM398.5 128c-31.152 0-56.5-25.348-56.5-56.5S367.348 15 398.5 15 455 40.348 455 71.5 429.652 128 398.5 128zm0 0"/><path d="M435.773 44.496a7.5 7.5 0 0 0-10.586.617l-33.375 37.489-22.257-17.797a7.503 7.503 0 0 0-10.543 1.175 7.503 7.503 0 0 0 1.175 10.543L388 98.758a7.461 7.461 0 0 0 4.68 1.644c2.07 0 4.129-.855 5.605-2.515l38.106-42.801a7.502 7.502 0 0 0-.618-10.59zm0 0"/></svg>