<svg height="512pt" viewBox="-66 0 512 512" width="512pt" xmlns="http://www.w3.org/2000/svg"><path d="M53.5 24.5C41.094 24.5 31 34.594 31 47s10.094 22.5 22.5 22.5S76 59.406 76 47 65.906 24.5 53.5 24.5zm0 30c-4.137 0-7.5-3.363-7.5-7.5s3.363-7.5 7.5-7.5S61 42.863 61 47s-3.363 7.5-7.5 7.5zm60 15c12.406 0 22.5-10.094 22.5-22.5s-10.094-22.5-22.5-22.5S91 34.594 91 47s10.094 22.5 22.5 22.5zm0-30c4.137 0 7.5 3.363 7.5 7.5s-3.363 7.5-7.5 7.5-7.5-3.363-7.5-7.5 3.363-7.5 7.5-7.5zM196 47c0-12.406-10.094-22.5-22.5-22.5S151 34.594 151 47s10.094 22.5 22.5 22.5S196 59.406 196 47zm-30 0c0-4.137 3.363-7.5 7.5-7.5s7.5 3.363 7.5 7.5-3.363 7.5-7.5 7.5-7.5-3.363-7.5-7.5zm205.5 81.5a7.5 7.5 0 0 0-7.5 7.5v361H15v-17.25c0-4.14-3.355-7.5-7.5-7.5s-7.5 3.36-7.5 7.5v24.75a7.5 7.5 0 0 0 7.5 7.5h364a7.5 7.5 0 0 0 7.5-7.5V136a7.5 7.5 0 0 0-7.5-7.5zm0 0"/><path d="M371.5 0H7.5A7.5 7.5 0 0 0 0 7.5v440c0 4.14 3.355 7.5 7.5 7.5s7.5-3.36 7.5-7.5V95h46.5a7.5 7.5 0 1 0 0-15H15V15h349v65H93.562c-4.14 0-7.5 3.36-7.5 7.5s3.36 7.5 7.5 7.5H364v8.75c0 4.14 3.355 7.5 7.5 7.5s7.5-3.36 7.5-7.5V7.5a7.5 7.5 0 0 0-7.5-7.5zm0 0"/><path d="M46.145 170.32c-1.563 4.84-.258 10.043 3.406 13.582l12.047 11.645-2.844 16.422c-.863 4.992 1.148 9.953 5.246 12.945a13.274 13.274 0 0 0 14.047 1.059L93 218.18l14.953 7.793a13.386 13.386 0 0 0 6.184 1.523c2.77 0 5.515-.867 7.86-2.582 4.1-2.992 6.108-7.953 5.245-12.945l-2.84-16.422 12.047-11.645c3.664-3.539 4.965-8.746 3.403-13.582-1.57-4.86-5.696-8.332-10.766-9.062l-16.703-2.406-7.457-14.98C102.66 139.323 98.094 136.5 93 136.5s-9.664 2.824-11.926 7.367l-7.46 14.985-16.7 2.406c-5.07.73-9.195 4.203-10.77 9.062zm30.476 3.254a13.314 13.314 0 0 0 10.024-7.234L93 153.57l6.355 12.77a13.308 13.308 0 0 0 10.02 7.234l14.078 2.028-10.144 9.804a13.227 13.227 0 0 0-3.848 11.77l2.406 13.926-12.699-6.622a13.355 13.355 0 0 0-12.344 0l-12.699 6.622 2.41-13.926a13.22 13.22 0 0 0-3.851-11.77l-10.145-9.804zm256.234-3.254c-1.57-4.86-5.699-8.332-10.77-9.062l-16.698-2.406-7.461-14.98c-2.262-4.548-6.832-7.372-11.926-7.372s-9.664 2.824-11.926 7.371l-7.46 14.98-16.7 2.407c-5.07.73-9.195 4.203-10.77 9.062-1.562 4.84-.257 10.043 3.407 13.582l12.047 11.645-2.844 16.422c-.863 4.992 1.148 9.953 5.246 12.945a13.274 13.274 0 0 0 14.047 1.059L286 218.18l14.953 7.793a13.386 13.386 0 0 0 6.184 1.523c2.77 0 5.515-.867 7.86-2.582 4.1-2.992 6.108-7.953 5.245-12.945l-2.84-16.422 12.047-11.645c3.664-3.539 4.969-8.742 3.406-13.582zm-26.542 15.082a13.237 13.237 0 0 0-3.852 11.774l2.41 13.922-12.7-6.618a13.355 13.355 0 0 0-12.343 0l-12.7 6.622 2.411-13.926a13.227 13.227 0 0 0-3.851-11.774l-10.145-9.8 14.078-2.028a13.301 13.301 0 0 0 10.02-7.234l6.355-12.77 6.356 12.77a13.314 13.314 0 0 0 10.023 7.234l14.078 2.028zm-69.958-47.082c-1.57-4.86-5.699-8.332-10.77-9.062l-16.698-2.406-7.461-14.98c-2.262-4.548-6.832-7.372-11.926-7.372s-9.664 2.824-11.926 7.371l-7.46 14.98-16.7 2.407c-5.07.73-9.195 4.203-10.77 9.062-1.562 4.84-.257 10.043 3.407 13.582l12.047 11.645-2.844 16.422c-.863 4.992 1.148 9.953 5.246 12.945a13.274 13.274 0 0 0 14.047 1.059l14.953-7.793 14.953 7.793a13.394 13.394 0 0 0 6.188 1.527c2.765 0 5.511-.871 7.855-2.582 4.102-2.996 6.11-7.957 5.246-12.95l-2.84-16.421 12.047-11.645c3.664-3.539 4.969-8.742 3.406-13.582zm-26.542 15.082a13.237 13.237 0 0 0-3.852 11.774l2.41 13.922-12.7-6.618a13.355 13.355 0 0 0-12.343 0l-12.7 6.622 2.411-13.926a13.227 13.227 0 0 0-3.851-11.774l-10.145-9.8 14.078-2.028a13.301 13.301 0 0 0 10.02-7.234l6.359-12.77 6.355 12.77a13.314 13.314 0 0 0 10.02 7.234l14.078 2.028zM129.73 254.59v25.402c0 2.969-6.02 7.055-10.406 7.055l-34.812.066c-9.883 0-17.926 8.262-17.926 18.422 0 3.637 1.02 7.063 2.816 9.953-3.09 3.16-4.789 7.246-4.789 11.89 0 4.927 1.899 9.49 5.067 12.84-1.184 2.372-1.996 5.337-1.996 9.005 0 8.957 6.25 16.437 14.5 18.086a20.822 20.822 0 0 0-.098 2.046c0 4.235 1.418 8.079 4.105 11.125 3.137 3.551 7.77 5.59 12.704 5.59h79.328c2.195 0 4.289-.449 6.214-1.234a11.233 11.233 0 0 0 6.958 2.418h22.417c3.973 0 7.465-2.07 9.481-5.184h83.59c4.144 0 7.5-3.355 7.5-7.5v-70.008c0-4.144-3.356-7.5-7.5-7.5h-82.711c-1.738-4.003-5.727-6.808-10.36-6.808h-22.417c-2.208 0-4.262.644-6.004 1.742-2.66-7.332-7.29-18.652-13.461-28.219-2.77-4.289-4.235-9.422-4.235-14.847v-10.5c0-6.72-5.367-12.184-11.968-12.184h-4.868c-10.515 0-21.129 8.766-21.129 28.344zm169.657 112.484h-74.282v-55.012h74.282zm-104.282-61.82h15v67h-15zm-50.375-25.262V254.59c0-7.98 2.465-13.344 6.133-13.344h1.836v7.688c0 8.316 2.293 16.265 6.633 22.98 6.438 9.98 11.172 22.828 12.906 27.887a18.425 18.425 0 0 0 5.965 8.476c1.192.946 1.902 2.48 1.902 4.114v56.351c0 1.262-.859 2.328-1.882 2.328H98.895c-.606 0-1.18-.203-1.458-.515-.132-.153-.351-.403-.351-1.196 0-.941.187-1.66.55-2.125a8.947 8.947 0 0 0 .993-9.492 9.005 9.005 0 0 0-8.149-5.094h-4.87c-1.614 0-2.926-1.535-2.926-3.421 0-2.239.808-3.036 1.515-3.485a8.297 8.297 0 0 0 3.746-8.27 8.29 8.29 0 0 0-6.054-6.753c-1.13-.301-2.278-1.543-2.278-3.336 0-.551 0-2.016 3.848-3.09a8.009 8.009 0 0 0 5.89-7.598c.075-3.593-2.18-6.75-5.609-7.855-1.035-.332-2.152-1.512-2.152-3.305 0-1.887 1.312-3.422 2.937-3.422l34.813-.066c11.742 0 25.39-9.633 25.39-22.055zM307 425a7.5 7.5 0 0 0-7.5-7.5h-220a7.5 7.5 0 1 0 0 15h220a7.5 7.5 0 0 0 7.5-7.5zM79.5 450.832a7.5 7.5 0 0 0-7.5 7.5c0 4.145 3.355 7.5 7.5 7.5h56.078c4.145 0 7.5-3.355 7.5-7.5a7.5 7.5 0 0 0-7.5-7.5zm0 0"/></svg>