<svg height="512pt" viewBox="0 -43 512 512" width="512pt" xmlns="http://www.w3.org/2000/svg"><path d="M503.465 426.668H59.735a8.534 8.534 0 0 1-8.536-8.535V59.734a8.534 8.534 0 0 1 8.535-8.535h443.73A8.534 8.534 0 0 1 512 59.734v358.399a8.534 8.534 0 0 1-8.535 8.535zm-435.2-17.066h426.669V68.266H68.266zm0 0"/><path d="M59.734 375.465H8.535A8.53 8.53 0 0 1 0 366.934V8.535A8.531 8.531 0 0 1 8.535 0h443.73a8.531 8.531 0 0 1 8.536 8.535v51.2a8.53 8.53 0 0 1-8.535 8.53h-384v298.669a8.527 8.527 0 0 1-8.532 8.53zm-42.668-17.067H51.2V59.734a8.534 8.534 0 0 1 8.535-8.535h384V17.066H17.066zm486.399 68.27H274.96a8.517 8.517 0 0 1-7.781-5.043 8.52 8.52 0 0 1 1.406-9.156L403.226 261c3.235-3.652 9.516-3.652 12.758 0l93.864 105.602a8.488 8.488 0 0 1 2.152 5.664v45.867a8.534 8.534 0 0 1-8.535 8.535zm-209.5-17.066h200.969v-34.094l-85.332-96zm0 0"/><path d="M274.96 426.668H59.735a8.534 8.534 0 0 1-8.535-8.535V276.266c0-2.09.77-4.102 2.16-5.664L164.293 145.8c3.234-3.653 9.516-3.653 12.758 0l170.664 192a8.514 8.514 0 0 1 0 11.332L281.344 423.8a8.535 8.535 0 0 1-6.383 2.867zM68.267 409.602H271.13l58.785-66.137-159.246-179.156L68.266 279.508zm281.6-196.27c-23.527 0-42.668-19.14-42.668-42.664 0-23.527 19.14-42.668 42.668-42.668s42.668 19.14 42.668 42.668c0 23.523-19.14 42.664-42.668 42.664zm0-68.266c-14.113 0-25.601 11.485-25.601 25.602 0 14.113 11.488 25.598 25.601 25.598s25.598-11.485 25.598-25.598c0-14.117-11.485-25.602-25.598-25.602zm0 0"/></svg>