<svg xmlns="http://www.w3.org/2000/svg" viewBox="0 0 472.951 472.951"><path d="M462.557 77.627c-14.323-25.556-41.488-41.423-70.889-41.423a81.03 81.03 0 0 0-39.602 10.364l-152.557 85.635 17.55 31.279 152.565-85.635a45.24 45.24 0 0 1 22.069-5.779c16.428 0 31.596 8.852 39.594 23.11 5.909 10.535 7.356 22.752 4.072 34.408-3.268 11.656-10.876 21.346-21.411 27.255l-138.291 77.604c-2.634-16.851-10.494-32.392-22.793-44.699-21.687-21.663-56.063-29.328-84.935-18.964l-12.485 4.495 12.128 33.734 12.534-4.471c16.127-5.869 35.319-1.496 47.406 10.567 6.974 6.982 11.388 15.826 12.786 25.41a36.132 36.132 0 0 1-1.731-.447c-11.681-3.284-21.354-10.9-27.271-21.476l-6.519-11.518-31.303 17.59 6.56 11.518c10.6 18.915 27.93 32.571 48.836 38.44.723.187 1.455.39 2.187.561a45.75 45.75 0 0 1-3.536 3.983l-114.32 114.328c-8.551 8.543-19.931 13.241-32.035 13.241-12.112 0-23.492-4.698-32.027-13.241s-13.233-19.907-13.233-32.027c0-12.112 4.698-23.483 13.233-32.018l99.291-99.282-25.369-25.369-99.282 99.282C8.446 319.427 0 339.806 0 361.468c0 21.679 8.446 42.049 23.776 57.396 15.339 15.339 35.709 23.768 57.388 23.768s42.049-8.429 57.388-23.768l114.345-114.32a81.353 81.353 0 0 0 18.842-29.71c6.625-1.764 12.924-4.3 18.777-7.6l140.99-79.115c18.875-10.608 32.514-27.946 38.375-48.828 5.868-20.891 3.267-42.798-7.324-61.664zm-289.386 64.142c4.503-.821 7.511-5.145 6.69-9.657L162.758 37.17c-.821-4.519-5.162-7.527-9.665-6.722-4.511.821-7.527 5.145-6.706 9.673l17.111 94.925c.813 4.529 5.146 7.528 9.673 6.723zm-129.61 50.007l94.934-17.119c4.519-.821 7.527-5.145 6.706-9.657-.821-4.528-5.145-7.543-9.649-6.722L40.61 175.405c-4.503.797-7.519 5.145-6.698 9.657.805 4.52 5.146 7.527 9.649 6.714z" fill="#010002"/></svg>