<svg xmlns="http://www.w3.org/2000/svg" width="396.494" height="396.494"><path d="M304.42 330.901h-43.219a2.84 2.84 0 0 1-2.834-2.834v-10.52a2.842 2.842 0 0 0-2.834-2.834h-60.475a2.842 2.842 0 0 0-2.835 2.834v10.52a2.84 2.84 0 0 1-2.835 2.834h-32.491a2.842 2.842 0 0 0-2.835 2.834v12.17a2.842 2.842 0 0 0 2.835 2.834h147.521a2.842 2.842 0 0 0 2.834-2.834v-12.17a2.84 2.84 0 0 0-2.832-2.834zm72.612-284.533h-308.4c-10.73 0-19.459 8.73-19.459 19.462v50.761c0 6.711-.498 7.66 4.004 7.66h7.72c3.778 0 3.003-.949 3.003-7.785V65.83c0-2.565 2.168-4.733 4.732-4.733h308.4c2.563 0 4.731 2.168 4.731 4.733v189.999h-219.87s-7.749-.014-7.749 10.006v23.766c0 10.006 8 10.006 8 10.006h214.888c10.729 0 19.461-8.729 19.461-19.459V65.83c0-10.731-8.73-19.462-19.461-19.462zM222.833 282.804a8.77 8.77 0 1 1-.004-17.538 8.77 8.77 0 0 1 .004 17.538z"/><path d="M124.125 141.633H12.559C5.632 141.633 0 147.266 0 154.193v183.372c0 6.926 5.632 12.561 12.559 12.561h111.566c6.923 0 12.559-5.635 12.559-12.561V154.193c0-6.927-5.636-12.56-12.559-12.56zm-69.545 12.81h27.523a2.38 2.38 0 0 1 0 4.76H54.58a2.378 2.378 0 0 1-2.379-2.379 2.378 2.378 0 0 1 2.379-2.381zm13.595 186.861a6.5 6.5 0 1 1 0-13 6.5 6.5 0 0 1 0 13zm57.718-19.104c0 1.676-1.342 3.047-2.98 3.047H13.774c-1.639 0-2.98-1.371-2.98-3.047V169.825c0-1.676 1.342-3.046 2.98-3.046h109.139c1.639 0 2.98 1.371 2.98 3.046V322.2z"/></svg>