<svg viewBox="0 0 467.398 467.38" xmlns="http://www.w3.org/2000/svg"><g clip-rule="evenodd" fill-rule="evenodd"><path d="M233.7 0c129.121 0 233.698 104.911 233.698 233.69 0 129.113-104.577 233.69-233.698 233.69C104.582 467.38 0 362.803 0 233.69 0 104.911 104.582 0 233.7 0z"/><path d="M450.249 145.928c11.099 27.237 17.149 56.822 17.149 87.762 0 129.113-104.577 233.69-233.698 233.69-4.366 0-8.408 0-12.774-.324L72.974 352.725c0-37.658-.334-80.031-.334-117.689 0-5.039 4.027-9.076 8.742-9.076h16.472V96.16l287.843-3.025c1.68 3.024 63.206 52.793 64.552 52.793z"/><path d="M297.592 333.552h-115.34c-4.366 0-7.735-3.35-7.735-7.386 0-4.381 3.369-7.73 7.735-7.73h115.34c4.037 0 7.73 3.35 7.73 7.73 0 4.037-3.693 7.386-7.73 7.386z" fill="#324a5e"/><path fill="#21313e" d="M208.816 278.411h61.873v40.025h-61.873z"/><path fill="#324a5e" d="M94.156 93.134h291.541v201.08H94.156z"/><path fill="#fff" d="M114.331 113.328h251.182V274.04H114.331z"/><path d="M392.74 237.059h-63.885v100.53h63.885zM365.178 345.32c0-2.682-2.014-4.695-4.371-4.695-2.357 0-4.371 2.014-4.371 4.695 0 2.357 2.014 4.371 4.371 4.371 2.357 0 4.371-2.014 4.371-4.371zm-14.792-114.646c0 .668.334 1.002 1.002 1.002h18.829c.335 0 1.003-.334 1.003-1.002 0-.678-.668-1.012-1.003-1.012h-18.829c-.668.001-1.002.335-1.002 1.012zm48.414 1.336v113.31c0 4.714-4.037 8.751-8.741 8.751h-58.502c-4.715 0-8.742-4.037-8.742-8.751V232.01c0-4.705 4.027-8.732 8.742-8.732h58.502c4.703 0 8.741 4.027 8.741 8.732z" fill="#253645"/><path fill="#fff" d="M328.178 236.047h65.239v102.888h-65.239zm32.629 104.578c-2.357 0-4.371 2.014-4.371 4.695 0 2.357 2.014 4.371 4.371 4.371 2.357 0 4.371-2.014 4.371-4.371 0-2.682-2.013-4.695-4.371-4.695zm-9.42-108.949h18.829c.335 0 1.003-.334 1.003-1.002 0-.678-.668-1.012-1.003-1.012h-18.829c-.668 0-1.002.334-1.002 1.012.001.668.335 1.002 1.002 1.002z"/><path d="M158.718 237.059h-83.73v100.53h83.729v-100.53zm-62.205-6.385c0 .668.339 1.002 1.007 1.002h38.67c.678 0 1.341-.334 1.341-1.002 0-.678-.663-1.012-1.341-1.012H97.52c-.668.001-1.007.335-1.007 1.012zm68.589 1.336v113.31c0 4.714-4.023 8.751-9.071 8.751H77.675c-4.7 0-8.737-4.037-8.737-8.751V232.01c0-4.705 4.037-8.732 8.737-8.732h78.356c5.048 0 9.071 4.027 9.071 8.732z" fill="#253645"/><path d="M117.027 340.625c-2.696 0-4.371 2.014-4.371 4.695 0 2.357 1.675 4.371 4.371 4.371 2.353 0 4.366-2.014 4.366-4.371 0-2.682-2.013-4.695-4.366-4.695zM97.52 231.676h38.67c.678 0 1.341-.334 1.341-1.002 0-.678-.663-1.012-1.341-1.012H97.52c-.668 0-1.007.334-1.007 1.012 0 .668.339 1.002 1.007 1.002zm-22.532 5.383h83.729v100.53H74.988z" fill="#fff"/></g></svg>